HIERARCHY
ROOT root
{
	OFFSET 0.000000 0.000000 0.000000
	CHANNELS 6 Xposition Yposition Zposition Zrotation Yrotation Xrotation
	JOINT lhip
	{
		OFFSET 0.058581 -0.082280 -0.017664
		CHANNELS 3 Zrotation Yrotation Xrotation
		JOINT lknee
		{
			OFFSET 0.043451 -0.386469 0.008037
			CHANNELS 3 Zrotation Yrotation Xrotation
			JOINT lankle
			{
				OFFSET -0.014790 -0.426874 -0.037428
				CHANNELS 3 Zrotation Yrotation Xrotation
				JOINT ltoe
				{
					OFFSET 0.041054 -0.060286 0.122042
					CHANNELS 3 Zrotation Yrotation Xrotation
					End Site
					{
						OFFSET 0.000000 0.000000 0.000000
					}
				}
			}
		}
	}
	JOINT rhip
	{
		OFFSET -0.060310 -0.090513 -0.013543
		CHANNELS 3 Zrotation Yrotation Xrotation
		JOINT rknee
		{
			OFFSET -0.043257 -0.383688 -0.004843
			CHANNELS 3 Zrotation Yrotation Xrotation
			JOINT rankle
			{
				OFFSET 0.019056 -0.420046 -0.034562
				CHANNELS 3 Zrotation Yrotation Xrotation
				JOINT rtoe
				{
					OFFSET -0.034840 -0.062106 0.130323
					CHANNELS 3 Zrotation Yrotation Xrotation
					End Site
					{
						OFFSET 0.000000 0.000000 0.000000
					}
				}
			}
		}
	}
	JOINT lowerback
	{
		OFFSET 0.004439 0.124404 -0.038385
		CHANNELS 3 Zrotation Yrotation Xrotation
		JOINT upperback
		{
			OFFSET 0.004488 0.137956 0.026820
			CHANNELS 3 Zrotation Yrotation Xrotation
			JOINT chest
			{
				OFFSET -0.002265 0.056032 0.002855
				CHANNELS 3 Zrotation Yrotation Xrotation
				JOINT lowerneck
				{
					OFFSET -0.013390 0.211636 -0.033468
					CHANNELS 3 Zrotation Yrotation Xrotation
					JOINT upperneck
					{
						OFFSET 0.010113 0.088937 0.050410
						CHANNELS 3 Zrotation Yrotation Xrotation
						End Site
						{
							OFFSET 0.000000 0.000000 0.000000
						}
					}
				}
				JOINT lclavicle
				{
					OFFSET 0.071702 0.114000 -0.018898
					CHANNELS 3 Zrotation Yrotation Xrotation
					JOINT lshoulder
					{
						OFFSET 0.122921 0.045205 -0.019046
						CHANNELS 3 Zrotation Yrotation Xrotation
						JOINT lelbow
						{
							OFFSET 0.255332 -0.015649 -0.022946
							CHANNELS 3 Zrotation Yrotation Xrotation
							JOINT lwrist
							{
								OFFSET 0.265709 0.012698 -0.007375
								CHANNELS 3 Zrotation Yrotation Xrotation
								End Site
								{
									OFFSET 0.000000 0.000000 0.000000
								}
							}
						}
					}
				}
				JOINT rclavicle
				{
					OFFSET -0.082954 0.112472 -0.023707
					CHANNELS 3 Zrotation Yrotation Xrotation
					JOINT rshoulder
					{
						OFFSET -0.113228 0.046853 -0.008472
						CHANNELS 3 Zrotation Yrotation Xrotation
						JOINT relbow
						{
							OFFSET -0.260127 -0.014369 -0.031269
							CHANNELS 3 Zrotation Yrotation Xrotation
							JOINT rwrist
							{
								OFFSET -0.269108 0.006794 -0.006027
								CHANNELS 3 Zrotation Yrotation Xrotation
								End Site
								{
									OFFSET 0.000000 0.000000 0.000000
								}
							}
						}
					}
				}
			}
		}
	}
}
MOTION
Frames: 7
Frame Time: 0.033333
1.180688 1.166730 0.989538 -85.934953 1.727886 85.553523 0.047294 -0.148601 7.196139 -2.481961 -13.542595 3.552233 3.788655 8.068953 -15.326167 0.000000 -0.000000 0.000000 3.691995 -1.711357 7.769985 4.754117 4.003823 4.492179 1.509753 -2.912532 -11.299966 0.000000 -0.000000 0.000000 -2.591705 1.455600 2.361939 2.141132 -3.198062 3.758230 1.304333 -2.209157 4.463920 4.343252 -0.665723 -0.414307 2.475142 -5.160371 3.960500 -26.787136 5.380671 2.555677 -62.077112 -5.845117 7.752263 11.052364 -22.075080 3.643996 -3.350755 -1.226071 -8.298684 25.263322 -3.098720 0.014310 61.163089 3.059892 10.198717 -14.644093 21.097104 -5.072925 7.575715 -1.071178 -10.172552 
1.180775 1.166503 0.989425 -85.972084 1.777639 85.566208 0.103302 -0.111752 7.149617 -2.492468 -13.596597 3.571077 3.733302 8.065126 -15.341144 0.000000 -0.000000 0.000000 3.755791 -1.621806 7.765347 4.745562 4.015003 4.475312 1.545600 -2.984246 -11.299060 0.000000 -0.000000 0.000000 -2.505708 1.430183 2.213293 2.077225 -3.134026 3.788876 1.302657 -2.231069 4.692826 4.406537 -0.711651 -0.495463 2.422349 -5.227010 4.038570 -26.611995 5.389545 2.547263 -62.312306 -5.938758 7.835262 11.196744 -21.921596 3.644572 -3.368481 -1.099562 -8.615513 25.163519 -3.083809 0.032010 61.364613 3.102044 10.242227 -14.772142 20.984399 -5.293390 7.528665 -1.000757 -10.636245 
1.180950 1.166332 0.989482 -86.048865 1.809081 85.510860 0.102559 -0.065344 7.156447 -2.488254 -13.663573 3.637301 3.720364 8.210271 -15.346189 0.000000 -0.000000 0.000000 3.781962 -1.604500 7.778644 4.738162 4.057121 4.520706 1.553758 -2.946649 -11.283688 0.000000 -0.000000 0.000000 -2.473537 1.439717 2.320792 2.060251 -3.103306 3.707689 1.336975 -2.239482 4.762142 4.365716 -0.779443 -0.385979 2.459290 -5.229784 4.042416 -26.555877 5.459596 2.504910 -62.412991 -5.914402 7.772292 11.231714 -21.775688 3.465120 -2.853401 -0.961234 -8.599332 25.090789 -3.070743 0.056430 61.395107 3.088051 10.216506 -14.698683 20.960388 -5.232464 7.350181 -1.131658 -10.494067 
1.180881 1.166165 0.989441 -86.102776 1.884783 85.436273 0.187451 0.014830 7.285743 -2.475915 -13.644632 3.564657 3.800417 8.208161 -15.436137 0.000000 -0.000000 0.000000 3.812598 -1.708204 7.882958 4.771118 4.161712 4.471050 1.617064 -2.909542 -11.288233 0.000000 -0.000000 0.000000 -2.453308 1.427820 2.360477 2.108273 -3.141235 3.754020 1.369785 -2.250000 4.752092 4.474908 -1.053111 -0.557066 2.361597 -5.421976 4.134514 -26.620865 5.477334 2.519693 -62.403512 -5.899335 7.680806 11.274163 -21.536654 3.249924 -2.728146 -1.077765 -8.801224 25.083724 -3.028629 0.067138 61.422388 3.025812 10.189736 -14.725726 20.865365 -5.303157 7.268804 -1.109499 -10.515432 
1.181049 1.166036 0.989488 -86.203309 1.882734 85.483762 0.158680 0.038384 7.246289 -2.458274 -13.671285 3.516918 3.701440 8.186480 -15.413687 0.000000 -0.000000 0.000000 3.809072 -1.679162 7.776748 4.743939 4.266822 4.540231 1.623393 -2.937568 -11.300298 0.000000 -0.000000 0.000000 -2.449450 1.421970 2.417728 2.092035 -3.125841 3.587674 1.362624 -2.270816 4.808634 4.588587 -1.055272 -1.136178 2.227278 -5.556620 4.372460 -26.669434 5.648395 2.336833 -62.347639 -5.872399 7.662255 11.207782 -21.314143 3.210894 -2.374948 -1.108364 -8.699246 25.116985 -3.149672 -0.062440 61.381521 2.922993 10.311022 -14.668127 20.908076 -5.221003 7.077878 -1.136419 -10.356565 
1.181043 1.165788 0.989432 -86.312435 1.913045 85.369806 0.156850 0.087461 7.375085 -2.408557 -13.492397 3.520586 3.751246 8.291188 -15.508864 0.000000 -0.000000 0.000000 3.803950 -1.682646 7.888671 4.769063 4.364561 4.563770 1.598472 -2.907327 -11.312425 0.000000 -0.000000 0.000000 -2.441522 1.448529 2.461748 2.109309 -3.142106 3.731012 1.345224 -2.299237 4.799840 4.525336 -1.162660 -1.014228 2.289011 -5.668284 4.405455 -26.633966 5.563236 2.370061 -62.429405 -5.848321 7.618360 11.256473 -21.249922 3.143746 -2.521112 -1.000648 -8.886547 25.079930 -3.140798 -0.040576 61.400815 2.940865 10.297710 -14.681560 20.978647 -5.113551 7.103674 -1.244877 -10.211992 
1.180981 1.165747 0.989347 -86.288711 1.988766 85.213550 0.245514 0.082085 7.522818 -2.450483 -13.555240 3.577560 3.737647 8.206020 -15.488330 0.000000 -0.000000 0.000000 3.893698 -1.742918 8.091439 4.736285 4.376128 4.510334 1.538128 -2.932474 -11.279569 0.000000 -0.000000 0.000000 -2.412058 1.426005 2.608859 2.119583 -3.212331 3.811332 1.332258 -2.328526 4.785953 4.598766 -1.469867 -0.986819 2.290801 -5.871257 4.426865 -26.573151 5.516985 2.420683 -62.406404 -5.870169 7.597207 11.118657 -21.210248 3.370644 -2.752865 -1.037300 -8.816951 24.973626 -3.140018 -0.115462 61.528778 2.833804 10.280844 -14.543483 20.999368 -4.848678 7.188903 -1.266638 -10.111558 
